# xmcd
#
# Track frame offsets:
#	150
#	12424
#	25962
#	39040
#	52005
#	63912
#	75911
#	88864
#	100443
#	112786
#	123685
#	135477
#	148368
#	161064
#	173232
#	186576
#	199077
#	210135
#	221157
#	232899
#	247289
#	259723
#	271492
#	284796
#
# Disc length: 3938 seconds
# Revision: 1
# Processed by: cddbd v1.5.2PL0 Copyright (c) Steve Scherf et al.
# Submitted via: dBpowerAMP V12.0
#
DISCID=690f6018
DTITLE=Lonnie Johnson - Chronological Classics 1949-1952
DYEAR=2005
DGENRE=Blues
TTITLE0=Troubles Ain't Nothing But the Blues
TTITLE1=Confused
TTITLE2=I'm So Afraid
TTITLE3=Blues Stay Away From Me
TTITLE4=I'm So Crazy For Love
TTITLE5=Nobody's Lovin' Me
TTITLE6=Little Rockin' Chair
TTITLE7=Nothin' Clickin' Chicken
TTITLE8=Nothin' But Trouble
TTITLE9=Old Fashioned Love
TTITLE10=When I'm Gone
TTITLE11=What Do You Want That I've Got, Pretty Baby
TTITLE12=Why Should I Cry
TTITLE13=It Was All in Vain
TTITLE14=You Only Want Me When You're Lonely
TTITLE15=Take Me I'm Yours
TTITLE16=Darlin'
TTITLE17=My Mother's Eyes
TTITLE18=Me and My Crazy Self
TTITLE19=Seven Long Days
TTITLE20=I'm Guilty
TTITLE21=Just Another Day
TTITLE22=You Can't Buy Love
TTITLE23=Can't Sleep Anymore
EXTD=
EXTT0=
EXTT1=
EXTT2=
EXTT3=
EXTT4=
EXTT5=
EXTT6=
EXTT7=
EXTT8=
EXTT9=
EXTT10=
EXTT11=
EXTT12=
EXTT13=
EXTT14=
EXTT15=
EXTT16=
EXTT17=
EXTT18=
EXTT19=
EXTT20=
EXTT21=
EXTT22=
EXTT23=
PLAYORDER=
